<svg xmlns="http://www.w3.org/2000/svg" width="850.3" height="1099.4" viewBox="0 0 850.3 1099.4">
  <path d="M639.4 688.5H676l-18.4-41.9-18.2 41.9zM209 644a25.3 25.3 0 0 0-25.2-25.3h-28.1v50.4h28A25.2 25.2 0 0 0 209 644Zm430.4-410.9H676l-18.4-41.9-18.2 41.9z" fill="#bf552a" />
  <path d="M0 0v1099.4h850.4V0Zm178.4 216.4c-10.3-3.4-21-6.8-29.8-12.3-10.8-7-17.4-16.3-17.4-29.6 0-16.9 12.7-34.9 48.5-34.9 27.3 0 48.1 13.3 49.1 13.8l-12.3 19.2c-.2 0-16.3-10.2-36.8-10.2-7.6 0-25.8 1.3-25.8 12 0 9.4 11.8 14 31.5 20.2 10.6 3.6 21.8 7 30.5 12.7a35 35 0 0 1 18 30.7c0 26.2-25.4 38.9-48.5 38.9-19.2 0-44.6-7.4-54.6-24.8l19.5-11.6v-.2c.2.6 9 13.8 35 13.8 13 0 25.9-5.5 25.9-16s-12.4-15.2-32.9-21.7Zm41.8 264.4-3.8 22.8h-72V368.3h22.8v112.6ZM183.7 596a48 48 0 1 1 0 96h-28v39.4h-22.8V596Zm53.7 367L150 875.2v83h-22.8V820l87.4 88v-85.1h22.8Zm234.3-3.8h-97.4V823.8h95.5v22.8H397v28.2h60v22.8h-60v38.9h78.5Zm-9-478.3-3.8 22.8h-71.8V368.3h22.7v112.6ZM409.8 596v112.6h53l-3.9 22.8h-71.8V596Zm68-319.7-4.2-78.3-48.7 56.5L376 198l-4.1 78.3h-22.8l7.2-136 68.5 79.2 68.4-79.2 7.2 136Zm227.3 570.3h-36v112.6h-22.8V846.6h-36v-22.8h94.8Zm-10.2-115.3-10.6-23.8H631l-10.6 23.9h-25L657.6 596 720 731.4ZM623.6 436a34 34 0 1 1 34 34 34 34 0 0 1-34-34ZM695 276l-10.6-23.9H631L620.4 276h-25l62.2-135.4L720 276Z" fill="#bf552a" />
  <path d="M185.3 254.2c-26 0-34.9-13.3-35-13.9v.2l-19.6 11.6c10 17.4 35.5 24.8 54.6 24.8 23.2 0 48.6-12.7 48.6-38.8a35 35 0 0 0-18-30.8c-8.7-5.7-20-9-30.6-12.7-19.7-6.2-31.4-10.8-31.4-20 0-10.9 18.2-12.2 25.8-12.2 20.4 0 36.6 10.2 36.8 10.2l12.3-19.1c-1-.6-21.8-13.9-49.1-13.9-35.9 0-48.6 18-48.6 35 0 13.2 6.7 22.5 17.5 29.5 8.7 5.5 19.5 9 29.7 12.3 20.5 6.5 32.8 11.2 32.8 21.7 0 10.6-12.9 16-25.8 16ZM595.4 276h25l10.6-24h53.3l10.6 24h25l-62.3-135.4Zm44-42.9 18.2-41.9 18.4 42ZM144.5 368.3v135.3h71.8l3.8-22.7h-52.9V368.3h-22.7zM133 731.4h22.7v-39.5h28a48 48 0 1 0 0-96H133Zm22.7-112.7h28a25.2 25.2 0 1 1 0 50.4h-28Zm439.7 112.7h25l10.6-24h53.3l10.6 24h25L657.6 596Zm44-42.9 18.2-41.9 18.4 41.9ZM214.6 908l-87.4-88v138.3H150v-83.1l87.4 87.8V822.9h-22.8V908zm210.3-688.4-68.5-79.3-7.2 136H372l4.1-78.4 48.8 56.5 48.7-56.5 4.2 78.4h22.8l-7.3-136-68.4 79.3zm-37.8 148.7v135.3h71.8l3.8-22.7h-52.9V368.3h-22.7zm0 363.1h71.8l3.8-22.8h-52.9V596h-22.7v135.4zm9.9 166.2h59.9v-22.8H397v-28.2h72.8v-22.8h-95.5v135.4h97.4l3.8-22.7H397v-38.9zm213.3-51h36v112.6H669V846.6h36.1v-22.8h-94.8v22.8z" fill="#fff" />
  <circle cx="657.7" cy="435.9" r="34" fill="#fff" />
</svg>
